<?xml version="1.0" encoding="UTF-8"?>
<svg id="Capa_2" data-name="Capa 2" xmlns="http://www.w3.org/2000/svg" viewBox="0 0 612.28 352.93">
  <defs>
    <style>
      @import url("https://use.typekit.net/fbh6wfi.css");
      .cls-1, .cls-2, .cls-3, .cls-4 {
        font-family: Impetus-Heavy, Impetus;
        font-weight: 800;
      }

      .cls-1, .cls-2, .cls-5 {
        fill: #fff;
      }

      .cls-1, .cls-3 {
        font-size: 72.29px;
        letter-spacing: -.04em;
      }

      .cls-2, .cls-4 {
        font-size: 72px;
      }

      .cls-3, .cls-6 {
        fill: #010101;
      }

      .cls-6, .cls-7, .cls-5 {
        stroke-width: 0px;
      }

      .cls-7, .cls-4 {
        fill: #febb12;
      }
    </style>
  </defs>
  <g id="PRINT">
    <rect class="cls-7" width="612.28" height="352.93"/>
    <polygon class="cls-5" points="270.21 2.23 201.24 129.97 201.24 181.89 244.31 352.93 612.28 352.93 612.28 2.23 270.21 2.23"/>
    <g>
      <path class="cls-6" d="M144,59.05c-20.6,0-37.29,16.7-37.29,37.29s16.7,37.29,37.29,37.29,37.29-16.7,37.29-37.29-16.7-37.29-37.29-37.29ZM158.46,69.33c5.24,0,9.48,4.24,9.48,9.48s-4.24,9.48-9.48,9.48-9.48-4.24-9.48-9.48,4.24-9.48,9.48-9.48ZM144.75,94.18c1.77,0,3.2,1.43,3.2,3.2s-1.43,3.2-3.2,3.2-3.2-1.43-3.2-3.2,1.43-3.2,3.2-3.2ZM131.04,69.59c5.24,0,9.48,4.24,9.48,9.48s-4.24,9.48-9.48,9.48-9.48-4.24-9.48-9.48,4.24-9.48,9.48-9.48ZM122.59,113.91c-5.24,0-9.48-4.24-9.48-9.48s4.24-9.48,9.48-9.48,9.48,4.24,9.48,9.48-4.24,9.48-9.48,9.48ZM144.88,129.8c-5.24,0-9.48-4.24-9.48-9.48s4.24-9.48,9.48-9.48,9.48,4.24,9.48,9.48-4.24,9.48-9.48,9.48ZM166.91,113.91c-5.24,0-9.48-4.24-9.48-9.48s4.24-9.48,9.48-9.48,9.48,4.24,9.48,9.48-4.24,9.48-9.48,9.48Z"/>
      <path class="cls-6" d="M60.46,100.08c-14.08,0-25.49,11.41-25.49,25.49s11.41,25.49,25.49,25.49,25.49-11.41,25.49-25.49-11.41-25.49-25.49-25.49ZM70.34,107.1c3.58,0,6.48,2.9,6.48,6.48s-2.9,6.48-6.48,6.48-6.48-2.9-6.48-6.48,2.9-6.48,6.48-6.48ZM60.97,124.09c1.21,0,2.19.98,2.19,2.19s-.98,2.19-2.19,2.19-2.19-.98-2.19-2.19.98-2.19,2.19-2.19ZM51.6,107.28c3.58,0,6.48,2.9,6.48,6.48s-2.9,6.48-6.48,6.48-6.48-2.9-6.48-6.48,2.9-6.48,6.48-6.48ZM45.82,137.58c-3.58,0-6.48-2.9-6.48-6.48s2.9-6.48,6.48-6.48,6.48,2.9,6.48,6.48-2.9,6.48-6.48,6.48ZM61.06,148.44c-3.58,0-6.48-2.9-6.48-6.48s2.9-6.48,6.48-6.48,6.48,2.9,6.48,6.48-2.9,6.48-6.48,6.48ZM76.12,137.58c-3.58,0-6.48-2.9-6.48-6.48s2.9-6.48,6.48-6.48,6.48,2.9,6.48,6.48-2.9,6.48-6.48,6.48Z"/>
      <path class="cls-6" d="M171.35,127.45c-7.3,6.44-16.86,10.33-27.34,10.33-14.82,0-27.83-7.79-35.14-19.5h-19.82c.6,2.34.93,4.8.93,7.34,0,16.29-13.22,29.51-29.51,29.51-2.01,0-3.99-.2-5.89-.59v35.43c0,5.59,4.57,10.17,10.15,10.17h96.52c5.59,0,10.17-4.57,10.17-10.17v-61.54c0-.33-.01-.65-.05-.98ZM64.94,174.89h9.22v8.45h-9.22v-8.45ZM161.02,192.44h-96.08v-5.38h96.08v5.38ZM77.35,183.35v-8.45h9.22v8.45h-9.22ZM89.76,183.35v-8.45h9.22v8.45h-9.22ZM102.16,183.35v-8.45h9.22v8.45h-9.22ZM114.57,183.35v-8.45h9.22v8.45h-9.22ZM126.98,183.35v-8.45h9.22v8.45h-9.22ZM139.39,183.35v-8.45h9.22v8.45h-9.22ZM161.02,183.35h-9.22v-8.45h9.22v8.45ZM161.02,172.07h-96.08v-5.38h96.08v5.38Z"/>
      <rect class="cls-6" x="173.83" y="136.46" width="11.79" height="38.94"/>
      <polygon class="cls-6" points="201.24 181.89 189.46 175.4 189.46 136.46 201.24 129.97 201.24 181.89"/>
      <rect class="cls-6" x="42.65" y="175.4" width="9.22" height="10.25"/>
      <path class="cls-6" d="M68.78,202.82h88.65v3.7c0,2.34-1.9,4.24-4.24,4.24h-80.16c-2.34,0-4.24-1.9-4.24-4.24v-3.7h0Z"/>
      <path class="cls-6" d="M125.57,212.91c0,7.11-5.76,12.87-12.87,12.87s-12.87-5.76-12.87-12.87h25.75Z"/>
      <path class="cls-6" d="M114.9,308.46v-79.13h-3.84v79.13c-3.01.84-5.24,3.58-5.24,6.86h14.32c0-3.28-2.22-6.02-5.24-6.86Z"/>
      <path class="cls-6" d="M59.9,311.95l51.59-88.54-4.71-2.74-52.72,90.49c-2.96.88-5.13,3.59-5.13,6.83h14.32c0-2.55-1.34-4.77-3.34-6.04Z"/>
      <path class="cls-6" d="M162.33,317.98h14.32c0-3.24-2.17-5.95-5.13-6.83l-52.72-90.49-4.71,2.74,51.59,88.54c-2,1.27-3.34,3.49-3.34,6.04Z"/>
    </g>
  </g>
</svg>