<?xml version="1.0" encoding="UTF-8"?>
<svg id="Capa_2" data-name="Capa 2" xmlns="http://www.w3.org/2000/svg" viewBox="0 0 55.89 51">
  <defs>
    <style>
      .cls-1 {
        fill: #FEBB12;
        stroke-width: 0px;
      }
    </style>
  </defs>
  <g id="PRINT">
    <g>
      <path class="cls-1" d="M36.65,0c-6.92,0-12.54,5.61-12.54,12.54s5.61,12.54,12.54,12.54,12.54-5.61,12.54-12.54S43.57,0,36.65,0ZM41.51,3.45c1.76,0,3.19,1.43,3.19,3.19s-1.43,3.19-3.19,3.19-3.19-1.43-3.19-3.19,1.43-3.19,3.19-3.19ZM36.9,11.81c.59,0,1.08.48,1.08,1.08,0,.59-.48,1.08-1.08,1.08s-1.08-.48-1.08-1.08c0-.59.48-1.08,1.08-1.08ZM32.3,3.54c1.76,0,3.19,1.43,3.19,3.19s-1.43,3.19-3.19,3.19-3.19-1.43-3.19-3.19,1.43-3.19,3.19-3.19ZM29.45,18.44c-1.76,0-3.19-1.43-3.19-3.19s1.43-3.19,3.19-3.19,3.19,1.43,3.19,3.19-1.43,3.19-3.19,3.19ZM36.95,23.78c-1.76,0-3.19-1.43-3.19-3.19s1.43-3.19,3.19-3.19,3.19,1.43,3.19,3.19-1.43,3.19-3.19,3.19ZM44.35,18.44c-1.76,0-3.19-1.43-3.19-3.19s1.43-3.19,3.19-3.19,3.19,1.43,3.19,3.19-1.43,3.19-3.19,3.19Z"/>
      <path class="cls-1" d="M8.57,13.79C3.84,13.79,0,17.63,0,22.36s3.84,8.57,8.57,8.57,8.57-3.84,8.57-8.57-3.84-8.57-8.57-8.57ZM11.89,16.15c1.2,0,2.18.98,2.18,2.18s-.98,2.18-2.18,2.18-2.18-.98-2.18-2.18.98-2.18,2.18-2.18ZM8.74,21.86c.41,0,.74.33.74.74s-.33.74-.74.74-.74-.33-.74-.74.33-.74.74-.74ZM5.59,16.21c1.2,0,2.18.98,2.18,2.18s-.98,2.18-2.18,2.18-2.18-.98-2.18-2.18.98-2.18,2.18-2.18ZM3.65,26.39c-1.2,0-2.18-.98-2.18-2.18s.98-2.18,2.18-2.18,2.18.98,2.18,2.18-.98,2.18-2.18,2.18ZM8.77,30.05c-1.2,0-2.18-.98-2.18-2.18s.98-2.18,2.18-2.18,2.18.98,2.18,2.18-.98,2.18-2.18,2.18ZM13.84,26.39c-1.2,0-2.18-.98-2.18-2.18s.98-2.18,2.18-2.18,2.18.98,2.18,2.18-.98,2.18-2.18,2.18Z"/>
      <path class="cls-1" d="M45.84,22.99c-2.45,2.16-5.67,3.47-9.19,3.47-4.98,0-9.36-2.62-11.81-6.56h-6.66c.2.79.31,1.62.31,2.47,0,5.48-4.44,9.92-9.92,9.92-.68,0-1.34-.07-1.98-.2v11.91c0,1.88,1.54,3.42,3.41,3.42h32.44c1.88,0,3.42-1.54,3.42-3.42v-20.69c0-.11,0-.22-.02-.33ZM10.08,38.94h3.1v2.84h-3.1v-2.84ZM42.37,44.84H10.08v-1.81h32.3v1.81ZM14.25,41.78v-2.84h3.1v2.84h-3.1ZM18.42,41.78v-2.84h3.1v2.84h-3.1ZM22.59,41.78v-2.84h3.1v2.84h-3.1ZM26.76,41.78v-2.84h3.1v2.84h-3.1ZM30.93,41.78v-2.84h3.1v2.84h-3.1ZM35.1,41.78v-2.84h3.1v2.84h-3.1ZM42.37,41.78h-3.1v-2.84h3.1v2.84ZM42.37,37.99H10.08v-1.81h32.3v1.81Z"/>
      <rect class="cls-1" x="46.68" y="26.02" width="3.96" height="13.09"/>
      <polygon class="cls-1" points="55.89 41.29 51.93 39.11 51.93 26.02 55.89 23.84 55.89 41.29"/>
      <rect class="cls-1" x="2.58" y="39.11" width="3.1" height="3.44"/>
      <path class="cls-1" d="M11.37,48.33h29.8v1.24c0,.79-.64,1.43-1.43,1.43H12.79c-.79,0-1.43-.64-1.43-1.43v-1.24h0Z"/>
    </g>
  </g>
</svg>