<?xml version="1.0" encoding="UTF-8"?>
<svg id="Capa_2" data-name="Capa 2" xmlns="http://www.w3.org/2000/svg" viewBox="0 0 761.11 84.76">
  <defs>
    <style>
      .cls-1 {
        fill: #010101;
      }

      .cls-1, .cls-2 {
        stroke-width: 0px;
      }

      .cls-2, .cls-3 {
        fill: #febb12;
      }
    </style>
  </defs>
  <g id="PRINT">
    <g>
      <rect class="cls-1" x="338.18" y="-338.18" width="84.76" height="761.11" transform="translate(338.18 422.94) rotate(-90)"/>
      <path class="cls-2" d="M26.26,73.87v4.34c0,.96-.78,1.74-1.74,1.74h-9.83c-.96,0-1.74-.78-1.74-1.74v-4.34c0-.96.78-1.74,1.74-1.74h9.83c.96,0,1.74.78,1.74,1.74ZM51.73,72.13h-9.83c-.96,0-1.74.78-1.74,1.74v4.34c0,.96.78,1.74,1.74,1.74h9.83c.96,0,1.74-.78,1.74-1.74v-4.34c0-.96-.78-1.74-1.74-1.74ZM78.94,72.13h-9.83c-.96,0-1.74.78-1.74,1.74v4.34c0,.96.78,1.74,1.74,1.74h9.83c.96,0,1.74-.78,1.74-1.74v-4.34c0-.96-.78-1.74-1.74-1.74ZM106.15,72.13h-9.83c-.96,0-1.74.78-1.74,1.74v4.34c0,.96.78,1.74,1.74,1.74h9.83c.96,0,1.74-.78,1.74-1.74v-4.34c0-.96-.78-1.74-1.74-1.74ZM133.36,72.13h-9.83c-.96,0-1.74.78-1.74,1.74v4.34c0,.96.78,1.74,1.74,1.74h9.83c.96,0,1.74-.78,1.74-1.74v-4.34c0-.96-.78-1.74-1.74-1.74ZM160.56,72.13h-9.83c-.96,0-1.74.78-1.74,1.74v4.34c0,.96.78,1.74,1.74,1.74h9.83c.96,0,1.74-.78,1.74-1.74v-4.34c0-.96-.78-1.74-1.74-1.74ZM187.77,72.13h-9.83c-.96,0-1.74.78-1.74,1.74v4.34c0,.96.78,1.74,1.74,1.74h9.83c.96,0,1.74-.78,1.74-1.74v-4.34c0-.96-.78-1.74-1.74-1.74ZM214.98,72.13h-9.83c-.96,0-1.74.78-1.74,1.74v4.34c0,.96.78,1.74,1.74,1.74h9.83c.96,0,1.74-.78,1.74-1.74v-4.34c0-.96-.78-1.74-1.74-1.74ZM242.19,72.13h-9.83c-.96,0-1.74.78-1.74,1.74v4.34c0,.96.78,1.74,1.74,1.74h9.83c.96,0,1.74-.78,1.74-1.74v-4.34c0-.96-.78-1.74-1.74-1.74ZM269.4,72.13h-9.83c-.96,0-1.74.78-1.74,1.74v4.34c0,.96.78,1.74,1.74,1.74h9.83c.96,0,1.74-.78,1.74-1.74v-4.34c0-.96-.78-1.74-1.74-1.74ZM296.6,72.13h-9.83c-.96,0-1.74.78-1.74,1.74v4.34c0,.96.78,1.74,1.74,1.74h9.83c.96,0,1.74-.78,1.74-1.74v-4.34c0-.96-.78-1.74-1.74-1.74ZM323.81,72.13h-9.83c-.96,0-1.74.78-1.74,1.74v4.34c0,.96.78,1.74,1.74,1.74h9.83c.96,0,1.74-.78,1.74-1.74v-4.34c0-.96-.78-1.74-1.74-1.74ZM351.02,72.13h-9.83c-.96,0-1.74.78-1.74,1.74v4.34c0,.96.78,1.74,1.74,1.74h9.83c.96,0,1.74-.78,1.74-1.74v-4.34c0-.96-.78-1.74-1.74-1.74ZM378.23,72.13h-9.83c-.96,0-1.74.78-1.74,1.74v4.34c0,.96.78,1.74,1.74,1.74h9.83c.96,0,1.74-.78,1.74-1.74v-4.34c0-.96-.78-1.74-1.74-1.74ZM405.44,72.13h-9.83c-.96,0-1.74.78-1.74,1.74v4.34c0,.96.78,1.74,1.74,1.74h9.83c.96,0,1.74-.78,1.74-1.74v-4.34c0-.96-.78-1.74-1.74-1.74ZM432.65,72.13h-9.83c-.96,0-1.74.78-1.74,1.74v4.34c0,.96.78,1.74,1.74,1.74h9.83c.96,0,1.74-.78,1.74-1.74v-4.34c0-.96-.78-1.74-1.74-1.74ZM459.85,72.13h-9.83c-.96,0-1.74.78-1.74,1.74v4.34c0,.96.78,1.74,1.74,1.74h9.83c.96,0,1.74-.78,1.74-1.74v-4.34c0-.96-.78-1.74-1.74-1.74ZM487.06,72.13h-9.83c-.96,0-1.74.78-1.74,1.74v4.34c0,.96.78,1.74,1.74,1.74h9.83c.96,0,1.74-.78,1.74-1.74v-4.34c0-.96-.78-1.74-1.74-1.74ZM514.27,72.13h-9.83c-.96,0-1.74.78-1.74,1.74v4.34c0,.96.78,1.74,1.74,1.74h9.83c.96,0,1.74-.78,1.74-1.74v-4.34c0-.96-.78-1.74-1.74-1.74ZM541.48,72.13h-9.83c-.96,0-1.74.78-1.74,1.74v4.34c0,.96.78,1.74,1.74,1.74h9.83c.96,0,1.74-.78,1.74-1.74v-4.34c0-.96-.78-1.74-1.74-1.74ZM568.69,72.13h-9.83c-.96,0-1.74.78-1.74,1.74v4.34c0,.96.78,1.74,1.74,1.74h9.83c.96,0,1.74-.78,1.74-1.74v-4.34c0-.96-.78-1.74-1.74-1.74ZM595.89,72.13h-9.83c-.96,0-1.74.78-1.74,1.74v4.34c0,.96.78,1.74,1.74,1.74h9.83c.96,0,1.74-.78,1.74-1.74v-4.34c0-.96-.78-1.74-1.74-1.74ZM623.1,72.13h-9.83c-.96,0-1.74.78-1.74,1.74v4.34c0,.96.78,1.74,1.74,1.74h9.83c.96,0,1.74-.78,1.74-1.74v-4.34c0-.96-.78-1.74-1.74-1.74ZM650.31,72.13h-9.83c-.96,0-1.74.78-1.74,1.74v4.34c0,.96.78,1.74,1.74,1.74h9.83c.96,0,1.74-.78,1.74-1.74v-4.34c0-.96-.78-1.74-1.74-1.74ZM677.52,72.13h-9.83c-.96,0-1.74.78-1.74,1.74v4.34c0,.96.78,1.74,1.74,1.74h9.83c.96,0,1.74-.78,1.74-1.74v-4.34c0-.96-.78-1.74-1.74-1.74ZM704.73,72.13h-9.83c-.96,0-1.74.78-1.74,1.74v4.34c0,.96.78,1.74,1.74,1.74h9.83c.96,0,1.74-.78,1.74-1.74v-4.34c0-.96-.78-1.74-1.74-1.74ZM731.94,72.13h-9.83c-.96,0-1.74.78-1.74,1.74v4.34c0,.96.78,1.74,1.74,1.74h9.83c.96,0,1.74-.78,1.74-1.74v-4.34c0-.96-.78-1.74-1.74-1.74ZM26.26,6.55v4.34c0,.96-.78,1.74-1.74,1.74h-9.83c-.96,0-1.74-.78-1.74-1.74v-4.34c0-.96.78-1.74,1.74-1.74h9.83c.96,0,1.74.78,1.74,1.74ZM51.73,4.81h-9.83c-.96,0-1.74.78-1.74,1.74v4.34c0,.96.78,1.74,1.74,1.74h9.83c.96,0,1.74-.78,1.74-1.74v-4.34c0-.96-.78-1.74-1.74-1.74ZM78.94,4.81h-9.83c-.96,0-1.74.78-1.74,1.74v4.34c0,.96.78,1.74,1.74,1.74h9.83c.96,0,1.74-.78,1.74-1.74v-4.34c0-.96-.78-1.74-1.74-1.74ZM106.15,4.81h-9.83c-.96,0-1.74.78-1.74,1.74v4.34c0,.96.78,1.74,1.74,1.74h9.83c.96,0,1.74-.78,1.74-1.74v-4.34c0-.96-.78-1.74-1.74-1.74ZM133.36,4.81h-9.83c-.96,0-1.74.78-1.74,1.74v4.34c0,.96.78,1.74,1.74,1.74h9.83c.96,0,1.74-.78,1.74-1.74v-4.34c0-.96-.78-1.74-1.74-1.74ZM160.56,4.81h-9.83c-.96,0-1.74.78-1.74,1.74v4.34c0,.96.78,1.74,1.74,1.74h9.83c.96,0,1.74-.78,1.74-1.74v-4.34c0-.96-.78-1.74-1.74-1.74ZM187.77,4.81h-9.83c-.96,0-1.74.78-1.74,1.74v4.34c0,.96.78,1.74,1.74,1.74h9.83c.96,0,1.74-.78,1.74-1.74v-4.34c0-.96-.78-1.74-1.74-1.74ZM214.98,4.81h-9.83c-.96,0-1.74.78-1.74,1.74v4.34c0,.96.78,1.74,1.74,1.74h9.83c.96,0,1.74-.78,1.74-1.74v-4.34c0-.96-.78-1.74-1.74-1.74ZM242.19,4.81h-9.83c-.96,0-1.74.78-1.74,1.74v4.34c0,.96.78,1.74,1.74,1.74h9.83c.96,0,1.74-.78,1.74-1.74v-4.34c0-.96-.78-1.74-1.74-1.74ZM269.4,4.81h-9.83c-.96,0-1.74.78-1.74,1.74v4.34c0,.96.78,1.74,1.74,1.74h9.83c.96,0,1.74-.78,1.74-1.74v-4.34c0-.96-.78-1.74-1.74-1.74ZM296.6,4.81h-9.83c-.96,0-1.74.78-1.74,1.74v4.34c0,.96.78,1.74,1.74,1.74h9.83c.96,0,1.74-.78,1.74-1.74v-4.34c0-.96-.78-1.74-1.74-1.74ZM323.81,4.81h-9.83c-.96,0-1.74.78-1.74,1.74v4.34c0,.96.78,1.74,1.74,1.74h9.83c.96,0,1.74-.78,1.74-1.74v-4.34c0-.96-.78-1.74-1.74-1.74ZM351.02,4.81h-9.83c-.96,0-1.74.78-1.74,1.74v4.34c0,.96.78,1.74,1.74,1.74h9.83c.96,0,1.74-.78,1.74-1.74v-4.34c0-.96-.78-1.74-1.74-1.74ZM378.23,4.81h-9.83c-.96,0-1.74.78-1.74,1.74v4.34c0,.96.78,1.74,1.74,1.74h9.83c.96,0,1.74-.78,1.74-1.74v-4.34c0-.96-.78-1.74-1.74-1.74ZM405.44,4.81h-9.83c-.96,0-1.74.78-1.74,1.74v4.34c0,.96.78,1.74,1.74,1.74h9.83c.96,0,1.74-.78,1.74-1.74v-4.34c0-.96-.78-1.74-1.74-1.74ZM432.65,4.81h-9.83c-.96,0-1.74.78-1.74,1.74v4.34c0,.96.78,1.74,1.74,1.74h9.83c.96,0,1.74-.78,1.74-1.74v-4.34c0-.96-.78-1.74-1.74-1.74ZM459.85,4.81h-9.83c-.96,0-1.74.78-1.74,1.74v4.34c0,.96.78,1.74,1.74,1.74h9.83c.96,0,1.74-.78,1.74-1.74v-4.34c0-.96-.78-1.74-1.74-1.74ZM487.06,4.81h-9.83c-.96,0-1.74.78-1.74,1.74v4.34c0,.96.78,1.74,1.74,1.74h9.83c.96,0,1.74-.78,1.74-1.74v-4.34c0-.96-.78-1.74-1.74-1.74ZM514.27,4.81h-9.83c-.96,0-1.74.78-1.74,1.74v4.34c0,.96.78,1.74,1.74,1.74h9.83c.96,0,1.74-.78,1.74-1.74v-4.34c0-.96-.78-1.74-1.74-1.74ZM541.48,4.81h-9.83c-.96,0-1.74.78-1.74,1.74v4.34c0,.96.78,1.74,1.74,1.74h9.83c.96,0,1.74-.78,1.74-1.74v-4.34c0-.96-.78-1.74-1.74-1.74ZM568.69,4.81h-9.83c-.96,0-1.74.78-1.74,1.74v4.34c0,.96.78,1.74,1.74,1.74h9.83c.96,0,1.74-.78,1.74-1.74v-4.34c0-.96-.78-1.74-1.74-1.74ZM595.89,4.81h-9.83c-.96,0-1.74.78-1.74,1.74v4.34c0,.96.78,1.74,1.74,1.74h9.83c.96,0,1.74-.78,1.74-1.74v-4.34c0-.96-.78-1.74-1.74-1.74ZM623.1,4.81h-9.83c-.96,0-1.74.78-1.74,1.74v4.34c0,.96.78,1.74,1.74,1.74h9.83c.96,0,1.74-.78,1.74-1.74v-4.34c0-.96-.78-1.74-1.74-1.74ZM650.31,4.81h-9.83c-.96,0-1.74.78-1.74,1.74v4.34c0,.96.78,1.74,1.74,1.74h9.83c.96,0,1.74-.78,1.74-1.74v-4.34c0-.96-.78-1.74-1.74-1.74ZM677.52,4.81h-9.83c-.96,0-1.74.78-1.74,1.74v4.34c0,.96.78,1.74,1.74,1.74h9.83c.96,0,1.74-.78,1.74-1.74v-4.34c0-.96-.78-1.74-1.74-1.74ZM704.73,4.81h-9.83c-.96,0-1.74.78-1.74,1.74v4.34c0,.96.78,1.74,1.74,1.74h9.83c.96,0,1.74-.78,1.74-1.74v-4.34c0-.96-.78-1.74-1.74-1.74ZM731.94,4.81h-9.83c-.96,0-1.74.78-1.74,1.74v4.34c0,.96.78,1.74,1.74,1.74h9.83c.96,0,1.74-.78,1.74-1.74v-4.34c0-.96-.78-1.74-1.74-1.74Z"/>
      <rect class="cls-3" x="103.41" y="-73.65" width="51.15" height="232.07" rx="3.38" ry="3.38" transform="translate(86.6 171.36) rotate(-90)"/>
      <rect class="cls-3" x="354.68" y="-73.65" width="51.15" height="232.07" rx="3.38" ry="3.38" transform="translate(337.88 422.64) rotate(-90)"/>
      <rect class="cls-3" x="605.96" y="-73.65" width="51.15" height="232.07" rx="3.38" ry="3.38" transform="translate(589.15 673.91) rotate(-90)"/>
    </g>
  </g>
</svg>